<svg width="600" height="400" viewBox="0 0 600 400" fill="none" xmlns="http://www.w3.org/2000/svg">
  <!-- Background -->
  <rect width="600" height="400" fill="url(#gradient1)"/>
  
  <!-- E-commerce Platform Mockup -->
  <!-- Browser Frame -->
  <rect x="50" y="50" width="500" height="300" rx="8" fill="white" stroke="#e5e7eb" stroke-width="2"/>
  <rect x="50" y="50" width="500" height="40" rx="8" fill="#f3f4f6"/>
  <circle cx="75" cy="70" r="6" fill="#ef4444"/>
  <circle cx="95" cy="70" r="6" fill="#f59e0b"/>
  <circle cx="115" cy="70" r="6" fill="#10b981"/>
  
  <!-- Navigation Bar -->
  <rect x="70" y="110" width="460" height="40" fill="#1f2937"/>
  <rect x="85" y="120" width="80" height="20" rx="4" fill="#3b82f6"/>
  <rect x="180" y="125" width="40" height="10" rx="2" fill="#9ca3af"/>
  <rect x="230" y="125" width="50" height="10" rx="2" fill="#9ca3af"/>
  <rect x="290" y="125" width="40" height="10" rx="2" fill="#9ca3af"/>
  
  <!-- Product Grid -->
  <!-- Product 1 -->
  <rect x="85" y="170" width="120" height="80" rx="6" fill="#f8fafc" stroke="#e2e8f0"/>
  <rect x="95" y="180" width="100" height="50" rx="4" fill="#e2e8f0"/>
  <rect x="95" y="235" width="60" height="8" rx="2" fill="#cbd5e1"/>
  <rect x="95" y="247" width="40" height="6" rx="2" fill="#3b82f6"/>
  
  <!-- Product 2 -->
  <rect x="220" y="170" width="120" height="80" rx="6" fill="#f8fafc" stroke="#e2e8f0"/>
  <rect x="230" y="180" width="100" height="50" rx="4" fill="#e2e8f0"/>
  <rect x="230" y="235" width="70" height="8" rx="2" fill="#cbd5e1"/>
  <rect x="230" y="247" width="45" height="6" rx="2" fill="#3b82f6"/>
  
  <!-- Product 3 -->
  <rect x="355" y="170" width="120" height="80" rx="6" fill="#f8fafc" stroke="#e2e8f0"/>
  <rect x="365" y="180" width="100" height="50" rx="4" fill="#e2e8f0"/>
  <rect x="365" y="235" width="55" height="8" rx="2" fill="#cbd5e1"/>
  <rect x="365" y="247" width="50" height="6" rx="2" fill="#3b82f6"/>
  
  <!-- Shopping Cart Icon -->
  <circle cx="480" cy="130" r="15" fill="#10b981"/>
  <path d="M470 125 h20 l-2 10 h-16 l-2 -10 z M478 122 v6 M482 122 v6" stroke="white" stroke-width="2" fill="none"/>
  
  <!-- Features Icons -->
  <rect x="85" y="270" width="100" height="30" rx="15" fill="#dbeafe"/>
  <text x="135" y="288" text-anchor="middle" fill="#1e40af" font-family="Arial" font-size="10">Secure Payment</text>
  
  <rect x="200" y="270" width="100" height="30" rx="15" fill="#dcfce7"/>
  <text x="250" y="288" text-anchor="middle" fill="#166534" font-family="Arial" font-size="10">Fast Shipping</text>
  
  <rect x="315" y="270" width="100" height="30" rx="15" fill="#fef3c7"/>
  <text x="365" y="288" text-anchor="middle" fill="#92400e" font-family="Arial" font-size="10">24/7 Support</text>
  
  <defs>
    <linearGradient id="gradient1" x1="0%" y1="0%" x2="100%" y2="100%">
      <stop offset="0%" style="stop-color:#dbeafe;stop-opacity:1" />
      <stop offset="100%" style="stop-color:#e0e7ff;stop-opacity:1" />
    </linearGradient>
  </defs>
</svg>