<svg width="600" height="400" viewBox="0 0 600 400" fill="none" xmlns="http://www.w3.org/2000/svg">
  <!-- Background -->
  <rect width="600" height="400" fill="url(#gradient4)"/>
  
  <!-- Portfolio Website Mockup -->
  <!-- Main Container -->
  <rect x="30" y="20" width="540" height="360" rx="20" fill="white" stroke="#e5e7eb" stroke-width="2"/>
  
  <!-- Hero Section -->
  <rect x="30" y="20" width="540" height="120" rx="20" fill="url(#heroGradient)"/>
  <rect x="30" y="128" width="540" height="12" fill="url(#heroGradient)"/>
  
  <!-- Profile Image -->
  <circle cx="150" cy="80" r="35" fill="white" stroke="#e5e7eb" stroke-width="3"/>
  <circle cx="150" cy="80" r="30" fill="#ddd6fe"/>
  <text x="150" y="85" text-anchor="middle" fill="#5b21b6" font-family="Arial" font-size="20" font-weight="bold">AN</text>
  
  <!-- Hero Text -->
  <text x="220" y="65" fill="white" font-family="Arial" font-size="16" font-weight="bold">Alisher Namozov</text>
  <text x="220" y="85" fill="#e0e7ff" font-family="Arial" font-size="12">Full-Stack Developer</text>
  <text x="220" y="100" fill="#c7d2fe" font-family="Arial" font-size="10">Passionate about creating amazing web experiences</text>
  
  <!-- CTA Buttons -->
  <rect x="220" y="110" width="80" height="25" rx="12" fill="white"/>
  <text x="260" y="125" text-anchor="middle" fill="#5b21b6" font-family="Arial" font-size="10" font-weight="bold">View Work</text>
  <rect x="310" y="110" width="80" height="25" rx="12" fill="transparent" stroke="white"/>
  <text x="350" y="125" text-anchor="middle" fill="white" font-family="Arial" font-size="10">Contact Me</text>
  
  <!-- Navigation -->
  <rect x="450" y="40" width="100" height="80" rx="8" fill="rgba(255,255,255,0.2)"/>
  <text x="500" y="55" text-anchor="middle" fill="white" font-family="Arial" font-size="8">Home</text>
  <text x="500" y="70" text-anchor="middle" fill="#c7d2fe" font-family="Arial" font-size="8">About</text>
  <text x="500" y="85" text-anchor="middle" fill="#c7d2fe" font-family="Arial" font-size="8">Projects</text>
  <text x="500" y="100" text-anchor="middle" fill="#c7d2fe" font-family="Arial" font-size="8">Contact</text>
  
  <!-- Projects Section -->
  <text x="50" y="170" fill="#1f2937" font-family="Arial" font-size="14" font-weight="bold">Featured Projects</text>
  
  <!-- Project Cards -->
  <!-- Project 1 -->
  <rect x="50" y="185" width="150" height="80" rx="8" fill="#f8fafc" stroke="#e2e8f0"/>
  <rect x="60" y="195" width="130" height="40" rx="4" fill="#e2e8f0"/>
  <text x="125" y="215" text-anchor="middle" fill="#64748b" font-family="Arial" font-size="8">E-Commerce</text>
  <rect x="60" y="245" width="40" height="12" rx="2" fill="#3b82f6"/>
  <text x="80" y="253" text-anchor="middle" fill="white" font-family="Arial" font-size="6">React</text>
  <rect x="105" y="245" width="35" height="12" rx="2" fill="#10b981"/>
  <text x="122" y="253" text-anchor="middle" fill="white" font-family="Arial" font-size="6">Node.js</text>
  <rect x="145" y="245" width="30" height="12" rx="2" fill="#f59e0b"/>
  <text x="160" y="253" text-anchor="middle" fill="white" font-family="Arial" font-size="6">Stripe</text>
  
  <!-- Project 2 -->
  <rect x="220" y="185" width="150" height="80" rx="8" fill="#f8fafc" stroke="#e2e8f0"/>
  <rect x="230" y="195" width="130" height="40" rx="4" fill="#e2e8f0"/>
  <text x="295" y="215" text-anchor="middle" fill="#64748b" font-family="Arial" font-size="8">Task Manager</text>
  <rect x="230" y="245" width="35" height="12" rx="2" fill="#3b82f6"/>
  <text x="247" y="253" text-anchor="middle" fill="white" font-family="Arial" font-size="6">React</text>
  <rect x="270" y="245" width="45" height="12" rx="2" fill="#8b5cf6"/>
  <text x="292" y="253" text-anchor="middle" fill="white" font-family="Arial" font-size="6">Socket.io</text>
  <rect x="320" y="245" width="40" height="12" rx="2" fill="#06b6d4"/>
  <text x="340" y="253" text-anchor="middle" fill="white" font-family="Arial" font-size="6">PostgreSQL</text>
  
  <!-- Project 3 -->
  <rect x="390" y="185" width="150" height="80" rx="8" fill="#f8fafc" stroke="#e2e8f0"/>
  <rect x="400" y="195" width="130" height="40" rx="4" fill="#e2e8f0"/>
  <text x="465" y="215" text-anchor="middle" fill="#64748b" font-family="Arial" font-size="8">Weather App</text>
  <rect x="400" y="245" width="35" height="12" rx="2" fill="#3b82f6"/>
  <text x="417" y="253" text-anchor="middle" fill="white" font-family="Arial" font-size="6">React</text>
  <rect x="440" y="245" width="30" height="12" rx="2" fill="#ef4444"/>
  <text x="455" y="253" text-anchor="middle" fill="white" font-family="Arial" font-size="6">API</text>
  <rect x="475" y="245" width="40" height="12" rx="2" fill="#06b6d4"/>
  <text x="495" y="253" text-anchor="middle" fill="white" font-family="Arial" font-size="6">Tailwind</text>
  
  <!-- Skills Section -->
  <text x="50" y="300" fill="#1f2937" font-family="Arial" font-size="14" font-weight="bold">Skills</text>
  
  <!-- Skill Bars -->
  <text x="50" y="320" fill="#4b5563" font-family="Arial" font-size="10">React.js</text>
  <rect x="110" y="315" width="100" height="8" rx="4" fill="#e5e7eb"/>
  <rect x="110" y="315" width="90" height="8" rx="4" fill="#3b82f6"/>
  
  <text x="50" y="335" fill="#4b5563" font-family="Arial" font-size="10">Node.js</text>
  <rect x="110" y="330" width="100" height="8" rx="4" fill="#e5e7eb"/>
  <rect x="110" y="330" width="85" height="8" rx="4" fill="#10b981"/>
  
  <text x="50" y="350" fill="#4b5563" font-family="Arial" font-size="10">TypeScript</text>
  <rect x="110" y="345" width="100" height="8" rx="4" fill="#e5e7eb"/>
  <rect x="110" y="345" width="80" height="8" rx="4" fill="#3178c6"/>
  
  <!-- Contact Section -->
  <rect x="250" y="290" width="290" height="80" rx="8" fill="#f1f5f9" stroke="#e2e8f0"/>
  <text x="395" y="310" text-anchor="middle" fill="#1f2937" font-family="Arial" font-size="12" font-weight="bold">Get In Touch</text>
  <text x="395" y="325" text-anchor="middle" fill="#6b7280" font-family="Arial" font-size="9">Let's work together on your next project</text>
  
  <rect x="280" y="335" width="80" height="20" rx="10" fill="#3b82f6"/>
  <text x="320" y="347" text-anchor="middle" fill="white" font-family="Arial" font-size="8">Email Me</text>
  
  <rect x="370" y="335" width="80" height="20" rx="10" fill="#10b981"/>
  <text x="410" y="347" text-anchor="middle" fill="white" font-family="Arial" font-size="8">LinkedIn</text>
  
  <rect x="460" y="335" width="80" height="20" rx="10" fill="#8b5cf6"/>
  <text x="500" y="347" text-anchor="middle" fill="white" font-family="Arial" font-size="8">Telegram</text>
  
  <!-- Responsive indicator -->
  <text x="450" y="380" fill="#6b7280" font-family="Arial" font-size="8">📱 Fully Responsive Design</text>
  
  <defs>
    <linearGradient id="gradient4" x1="0%" y1="0%" x2="100%" y2="100%">
      <stop offset="0%" style="stop-color:#f3e8ff;stop-opacity:1" />
      <stop offset="100%" style="stop-color:#e0e7ff;stop-opacity:1" />
    </linearGradient>
    <linearGradient id="heroGradient" x1="0%" y1="0%" x2="100%" y2="0%">
      <stop offset="0%" style="stop-color:#8b5cf6;stop-opacity:1" />
      <stop offset="100%" style="stop-color:#3b82f6;stop-opacity:1" />
    </linearGradient>
  </defs>
</svg>