<svg width="600" height="400" viewBox="0 0 600 400" fill="none" xmlns="http://www.w3.org/2000/svg">
  <!-- Background -->
  <rect width="600" height="400" fill="url(#gradient2)"/>
  
  <!-- Task Management App Mockup -->
  <!-- App Container -->
  <rect x="50" y="30" width="500" height="340" rx="12" fill="white" stroke="#e5e7eb" stroke-width="2"/>
  
  <!-- Header -->
  <rect x="50" y="30" width="500" height="60" rx="12" fill="#1f2937"/>
  <rect x="50" y="78" width="500" height="12" fill="#1f2937"/>
  
  <!-- App Title -->
  <text x="300" y="65" text-anchor="middle" fill="white" font-family="Arial" font-size="18" font-weight="bold">TaskFlow Pro</text>
  
  <!-- Navigation -->
  <rect x="70" y="110" width="460" height="40" fill="#f8fafc" stroke="#e2e8f0"/>
  <rect x="85" y="122" width="60" height="16" rx="8" fill="#3b82f6"/>
  <text x="115" y="132" text-anchor="middle" fill="white" font-family="Arial" font-size="10">To Do</text>
  <rect x="160" y="122" width="80" height="16" rx="8" fill="#e2e8f0"/>
  <text x="200" y="132" text-anchor="middle" fill="#6b7280" font-family="Arial" font-size="10">In Progress</text>
  <rect x="255" y="122" width="60" height="16" rx="8" fill="#e2e8f0"/>
  <text x="285" y="132" text-anchor="middle" fill="#6b7280" font-family="Arial" font-size="10">Done</text>
  
  <!-- Task Columns -->
  <!-- To Do Column -->
  <rect x="70" y="170" width="140" height="180" rx="6" fill="#f1f5f9" stroke="#e2e8f0"/>
  <text x="140" y="185" text-anchor="middle" fill="#1e293b" font-family="Arial" font-size="12" font-weight="bold">To Do (3)</text>
  
  <!-- Task 1 -->
  <rect x="80" y="195" width="120" height="40" rx="4" fill="white" stroke="#e2e8f0"/>
  <rect x="85" y="200" width="4" height="30" rx="2" fill="#ef4444"/>
  <text x="95" y="208" fill="#1e293b" font-family="Arial" font-size="9" font-weight="bold">Fix login bug</text>
  <text x="95" y="218" fill="#6b7280" font-family="Arial" font-size="8">High Priority</text>
  <circle cx="185" cy="225" r="8" fill="#fecaca"/>
  <text x="185" y="229" text-anchor="middle" fill="#dc2626" font-family="Arial" font-size="8">AN</text>
  
  <!-- Task 2 -->
  <rect x="80" y="245" width="120" height="40" rx="4" fill="white" stroke="#e2e8f0"/>
  <rect x="85" y="250" width="4" height="30" rx="2" fill="#f59e0b"/>
  <text x="95" y="258" fill="#1e293b" font-family="Arial" font-size="9" font-weight="bold">Update docs</text>
  <text x="95" y="268" fill="#6b7280" font-family="Arial" font-size="8">Medium</text>
  <circle cx="185" cy="275" r="8" fill="#fed7aa"/>
  <text x="185" y="279" text-anchor="middle" fill="#ea580c" font-family="Arial" font-size="8">JD</text>
  
  <!-- In Progress Column -->
  <rect x="230" y="170" width="140" height="180" rx="6" fill="#eff6ff" stroke="#dbeafe"/>
  <text x="300" y="185" text-anchor="middle" fill="#1e40af" font-family="Arial" font-size="12" font-weight="bold">In Progress (2)</text>
  
  <!-- Task 3 -->
  <rect x="240" y="195" width="120" height="50" rx="4" fill="white" stroke="#dbeafe"/>
  <rect x="245" y="200" width="4" height="40" rx="2" fill="#3b82f6"/>
  <text x="255" y="208" fill="#1e293b" font-family="Arial" font-size="9" font-weight="bold">Design new UI</text>
  <text x="255" y="218" fill="#6b7280" font-family="Arial" font-size="8">In Review</text>
  <!-- Progress Bar -->
  <rect x="255" y="225" width="80" height="4" rx="2" fill="#e5e7eb"/>
  <rect x="255" y="225" width="50" height="4" rx="2" fill="#3b82f6"/>
  <circle cx="345" cy="235" r="8" fill="#bfdbfe"/>
  <text x="345" y="239" text-anchor="middle" fill="#1d4ed8" font-family="Arial" font-size="8">SM</text>
  
  <!-- Done Column -->
  <rect x="390" y="170" width="140" height="180" rx="6" fill="#f0fdf4" stroke="#dcfce7"/>
  <text x="460" y="185" text-anchor="middle" fill="#166534" font-family="Arial" font-size="12" font-weight="bold">Done (5)</text>
  
  <!-- Task 4 -->
  <rect x="400" y="195" width="120" height="35" rx="4" fill="white" stroke="#dcfce7"/>
  <rect x="405" y="200" width="4" height="25" rx="2" fill="#10b981"/>
  <text x="415" y="208" fill="#1e293b" font-family="Arial" font-size="9" font-weight="bold">API Integration</text>
  <text x="415" y="218" fill="#10b981" font-family="Arial" font-size="8">✓ Completed</text>
  
  <!-- Task 5 -->
  <rect x="400" y="240" width="120" height="35" rx="4" fill="white" stroke="#dcfce7"/>
  <rect x="405" y="245" width="4" height="25" rx="2" fill="#10b981"/>
  <text x="415" y="253" fill="#1e293b" font-family="Arial" font-size="9" font-weight="bold">Database Setup</text>
  <text x="415" y="263" fill="#10b981" font-family="Arial" font-size="8">✓ Completed</text>
  
  <!-- Real-time indicator -->
  <circle cx="520" cy="50" r="4" fill="#10b981"/>
  <text x="480" y="55" fill="#10b981" font-family="Arial" font-size="10">● Live Updates</text>
  
  <defs>
    <linearGradient id="gradient2" x1="0%" y1="0%" x2="100%" y2="100%">
      <stop offset="0%" style="stop-color:#f0f9ff;stop-opacity:1" />
      <stop offset="100%" style="stop-color:#ecfdf5;stop-opacity:1" />
    </linearGradient>
  </defs>
</svg>